<svg width="59" height="59" viewBox="0 0 59 59" fill="none" xmlns="http://www.w3.org/2000/svg">
<path d="M29.5 0C13.2866 0 0 13.4018 0 29.6152C0 45.7345 13.1655 59 29.5 59C45.8142 59 59 45.7543 59 29.6152C59 13.4018 45.7134 0 29.5 0ZM34.6855 55.0244C33.0264 55.3701 31.2632 55.543 29.5 55.543C27.7368 55.543 25.9736 55.3701 24.3145 55.0244V46.9351C24.3145 44.999 24.833 44.3076 25.5244 43.374C25.8764 42.9716 26.0889 42.6106 27.6675 40.2285L25.0059 39.8135C18.1607 38.811 15.4644 35.25 14.3926 32.4844C13.0098 28.7856 13.7358 24.1529 16.2251 21.2148C16.6055 20.7651 16.9165 20.0044 16.6401 19.2095C16.1211 17.6192 16.1904 15.0957 16.5361 14.1275C18.3691 14.3894 20.2538 15.7025 21.8257 16.6514C22.5499 17.074 22.9298 16.9624 23.2773 16.9971C24.5404 16.7342 26.5107 16.0982 29.5347 16.0982C31.4014 16.0982 33.3721 16.3745 35.3081 16.9277C35.6542 16.9196 36.2106 17.214 37.1748 16.6514C38.8178 15.6503 40.6386 14.3822 42.4639 14.1275C42.8096 15.0957 42.8789 17.6192 42.3603 19.2095C42.0835 20.0044 42.3945 20.7651 42.7754 21.2148C45.2642 24.1533 45.9902 28.7856 44.6074 32.4844C43.5356 35.25 40.8393 38.811 33.9941 39.8135L31.3325 40.2285C32.9642 42.6907 33.1362 42.986 33.476 43.374C34.167 44.3076 34.6855 44.999 34.6855 46.9351V55.0244ZM38.1426 54.022V46.9351C38.1426 44.9644 37.7276 43.6509 37.1743 42.6826C42.4292 41.2656 46.1631 38.1538 47.8223 33.6944C49.5854 28.9931 48.7905 23.3926 45.8516 19.5205C46.3706 17.2046 46.3706 13.5054 45.126 11.7769C44.5727 11.0166 43.812 10.6016 42.8442 10.6016C42.8096 10.6016 42.8096 10.6016 42.8096 10.6016C40.129 10.7465 38.0192 12.0965 35.7573 13.4707C33.6831 12.9175 31.5742 12.6411 29.4653 12.6411C27.3223 12.6411 25.1787 12.9522 23.2778 13.4707C20.8966 12.0348 18.8071 10.7429 16.0522 10.6016C15.188 10.6016 14.4273 11.0166 13.874 11.7769C12.6299 13.5054 12.6299 17.2046 13.1484 19.5205C10.2095 23.3926 9.41456 29.0274 11.1777 33.6944C12.8369 38.1538 16.5708 41.2656 21.8257 42.6826C21.3967 43.433 21.0573 44.4012 20.9236 45.7116C19.8622 46.0775 18.9417 46.1968 18.0855 45.9452C17.1825 45.6783 16.479 45.0755 15.8677 44.0474C14.4948 41.741 12.1563 39.858 9.49378 40.1029L9.79762 43.5464C11.0305 43.4335 12.2576 44.7379 12.895 45.8133C13.9465 47.5841 15.3631 48.7455 17.1065 49.2604C18.4006 49.6417 19.5835 49.6327 20.8574 49.3608V54.022C10.7974 50.4956 3.45703 40.8852 3.45703 29.6152C3.45703 15.3032 15.188 3.45703 29.5 3.45703C43.812 3.45703 55.543 15.3032 55.543 29.6152C55.543 40.8852 48.2026 50.4956 38.1426 54.022Z" fill="white"/>
</svg>
