<svg width="59" height="59" viewBox="0 0 59 59" fill="none" xmlns="http://www.w3.org/2000/svg">
<path d="M50.3574 0H8.64258C3.87701 0 0 3.87701 0 8.64258V50.3574C0 55.123 3.87701 59 8.64258 59H50.3574C55.123 59 59 55.123 59 50.3574V8.64258C59 3.87701 55.123 0 50.3574 0ZM55.543 50.3574C55.543 53.2167 53.2167 55.543 50.3574 55.543H8.64258C5.78333 55.543 3.45703 53.2167 3.45703 50.3574V8.64258C3.45703 5.78333 5.78333 3.45703 8.64258 3.45703H50.3574C53.2167 3.45703 55.543 5.78333 55.543 8.64258V50.3574Z" fill="white"/>
<path d="M10.4863 48.6289H20.8574V24.1992H10.4863V48.6289ZM13.9434 27.6562H17.4004V45.1719H13.9434V27.6562Z" fill="white"/>
<path d="M38.1525 24.1992C38.1493 24.1992 38.1457 24.1992 38.1426 24.1992C36.9475 24.1992 35.7834 24.3991 34.6855 24.7871V24.1992H24.3145V48.6289H34.6855V36.2988C34.6855 35.3459 35.4611 34.5703 36.4141 34.5703C37.367 34.5703 38.1426 35.3459 38.1426 36.2988V48.6289H48.5137V35.1105C48.5137 29.5162 43.9754 24.2046 38.1525 24.1992ZM45.0566 45.1719H41.5996V36.2988C41.5996 33.4396 39.2733 31.1133 36.4141 31.1133C33.5548 31.1133 31.229 33.4396 31.2285 36.2984V45.1719H27.7715V27.6562H31.2285V31.1155L33.995 29.0377C35.1982 28.1338 36.6324 27.6562 38.1426 27.6562H38.1493C41.8287 27.6599 45.0566 31.143 45.0566 35.1105V45.1719Z" fill="white"/>
<path d="M10.4863 20.7422H20.8574V10.3711H10.4863V20.7422ZM13.9434 13.8281H17.4004V17.2852H13.9434V13.8281Z" fill="white"/>
</svg>
