<svg width="59" height="48" viewBox="0 0 59 48" fill="none" xmlns="http://www.w3.org/2000/svg">
<path d="M59 6.41043C55.2886 6.58045 55.3697 6.56658 54.9501 6.60148L57.1481 0.361936C57.1481 0.361936 50.2872 2.87073 48.5479 3.31951C43.9799 -0.761584 37.1901 -0.941903 32.3358 2.02373C28.3607 4.45288 26.2271 8.62436 26.9387 13.5001C19.2023 12.433 12.6839 8.78767 7.5375 2.64254L5.90981 0.699306L4.69355 2.9195C3.15634 5.72495 2.64589 8.93264 3.25582 11.9515C3.5061 13.19 3.93147 14.3713 4.5207 15.4773L3.12438 14.9395L2.95873 17.2586C2.79083 19.6144 3.57992 22.3643 5.06986 24.6141C5.48939 25.2476 6.02955 25.9434 6.7142 26.6298L5.99264 26.5197L6.8731 29.1771C8.0304 32.6684 10.4341 35.3696 13.5535 36.8712C10.4382 38.1854 7.92146 39.0239 3.78473 40.3765L0 41.6132L3.49574 43.513C4.82859 44.2374 9.53835 46.6567 14.1918 47.3825C24.5359 48.995 36.1822 47.6818 44.0227 40.6628C50.6266 34.7508 52.7935 26.3412 52.3434 17.5897C52.2754 16.2648 52.6405 15.0004 53.3715 14.0299C54.8358 12.0866 58.991 6.4234 59 6.41043ZM50.6072 11.9717C49.3932 13.5829 48.7851 15.6407 48.894 17.7651C49.3482 26.5926 46.9319 33.4385 41.7117 38.1115C35.6137 43.5707 25.7778 45.7135 14.727 43.9904C12.7257 43.6786 10.6574 42.9801 8.94552 42.2826C12.4138 41.0964 15.0921 40.0391 19.4174 38.0041L25.4555 35.1633L18.7891 34.7392C15.5958 34.536 12.9369 32.9977 11.3024 30.5001C12.1703 30.45 13.0071 30.3104 13.8403 30.0795L20.1984 28.3193L13.7872 26.7586C10.6718 26.0002 8.896 24.1474 7.95477 22.7263C7.33674 21.7925 6.93297 20.8359 6.6908 19.954C7.33359 20.1253 8.08306 20.2475 9.29167 20.3665L15.2258 20.95L10.5241 17.3042C7.13643 14.6778 5.77882 10.7318 6.77407 6.9384C17.3468 17.8389 29.7606 17.0197 31.0102 17.3078C30.7352 14.6523 30.728 14.646 30.6559 14.3932C29.0557 8.77022 32.5627 5.91511 34.1445 4.94864C37.4485 2.93024 42.693 2.62598 46.3256 5.95135C47.1102 6.66905 48.1711 6.95138 49.1641 6.70618C50.0554 6.48604 50.7868 6.25293 51.503 5.99923L50.0122 10.2311L51.9153 10.2325C51.5561 10.7112 51.1254 11.2844 50.6072 11.9717Z" fill="white"/>
</svg>
